# xmcd
#
# Track frame offsets:
#	150
#	14030
#	28959
#	41112
#	53038
#	63296
#	76124
#	88089
#	99622
#	111642
#	127619
#	143464
#	160493
#	173022
#	187724
#	204903
#
# Disc length: 2970 seconds
#
# Revision: 0
# Processed by: cddbd v1.5.2PL0 Copyright (c) Steve Scherf et al.
# Submitted via: EasyCDDAExtractor 16.0.1.1
#
DISCID=ce0b9810
DTITLE=Lucas Lucco - CD Lucas Lucco [ Nem te Conto ] Ano 2013
DYEAR=2013
DGENRE=Sertanejo
TTITLE0=Foi daquele jeito
TTITLE1=Princesinha
TTITLE2=Plano B
TTITLE3=Nem te conto [ Sogrão ]
TTITLE4=PacMan
TTITLE5=Na horizontal
TTITLE6=Sai da Minha vida
TTITLE7=Cupido
TTITLE8=Pronto pra tudo
TTITLE9=Pra te fazer lembrar
TTITLE10=Previsões
TTITLE11=Quando se arrepender
TTITLE12=E daí se eu sofri
TTITLE13=Sem querer
TTITLE14=Um pedaço de Mim
TTITLE15=Aí eu vou
EXTD=
EXTT0=
EXTT1=
EXTT2=
EXTT3=
EXTT4=
EXTT5=
EXTT6=
EXTT7=
EXTT8=
EXTT9=
EXTT10=
EXTT11=
EXTT12=
EXTT13=
EXTT14=
EXTT15=
PLAYORDER=
